<svg xmlns="http://www.w3.org/2000/svg" width="85.619" height="56.101" viewBox="0 0 85.619 56.101">
  <g id="Group_152" data-name="Group 152" transform="translate(1285.619 1131.05) rotate(180)">
    <g id="Group_149" data-name="Group 149" transform="translate(379.434 603.828)">
      <path id="Path_482" data-name="Path 482" d="M883.5,497.941c4.916-.252,9.928-6.678,11.666-9.127a1.6,1.6,0,0,0,0-1.866c-1.737-2.449-6.749-8.875-11.666-9.127-6.591-.339-8.309,2.369-14.092,6.459a1.618,1.618,0,0,0,.947,2.938c5.783-.047,14.171.005,16.22.662-2.049.657-10.437.709-16.22.662a1.618,1.618,0,0,0-.947,2.938C875.191,495.572,876.909,498.281,883.5,497.941Z" transform="translate(10.72 11.581)" fill="#1a9b45"/>
      <path id="Path_483" data-name="Path 483" d="M882.7,483.086c-.254-4.919-6.681-9.931-9.127-11.665a1.606,1.606,0,0,0-1.868,0c-2.446,1.734-8.875,6.746-9.127,11.665-.339,6.588,2.372,8.309,6.459,14.089a1.619,1.619,0,0,0,2.941-.944c-.049-5.783.005-14.174.659-16.223.656,2.049.708,10.44.662,16.223a1.618,1.618,0,0,0,2.938.944C880.325,491.4,883.036,489.674,882.7,483.086Z" transform="translate(0 0)" fill="#1a9b45"/>
      <path id="Path_484" data-name="Path 484" d="M862.575,496.629c.252,4.919,6.681,9.931,9.127,11.666a1.606,1.606,0,0,0,1.868,0c2.446-1.734,8.872-6.746,9.127-11.666.339-6.588-2.372-8.309-6.462-14.089a1.618,1.618,0,0,0-2.938.944c.046,5.783-.006,14.171-.662,16.22-.654-2.049-.709-10.437-.659-16.22a1.62,1.62,0,0,0-2.941-.944C864.947,488.32,862.236,490.041,862.575,496.629Z" transform="translate(0 18.628)" fill="#1a9b45"/>
    </g>
    <rect id="Rectangle_41" data-name="Rectangle 41" width="40" height="2" transform="translate(1200 1103)" fill="#828282"/>
  </g>
</svg>
